<?xml version="1.0" encoding="UTF-8"?>
<!-- Generator: https://ezgif.com/png-to-svg -->
<svg version="1.1" xmlns="http://www.w3.org/2000/svg" width="250" height="338">
<path d="M0 0 C29.25 8.36 53.81 30.08 69 56 C74.21 65.5 78.01 75.6 81 86 C81.28 86.96 81.28 86.96 81.57 87.93 C87.25 109.75 83.19 133.07 72.8 152.54 C71.35 155.34 70.14 158.07 69 161 C70.29 162.27 70.29 162.27 71.61 163.57 C74.83 166.72 78.03 169.89 81.23 173.06 C82.61 174.43 83.99 175.79 85.38 177.16 C87.38 179.12 89.37 181.09 91.36 183.07 C91.98 183.67 92.6 184.28 93.24 184.9 C96.67 188.33 99.23 191.39 101 196 C101 201 100.58 203.1 97.88 207.31 C94.19 210.76 91.1 212.93 85.9 213.05 C76.32 211.76 69.95 203.32 64.07 196.32 C60.67 192.51 57 188.96 53.35 185.39 C49.1 181.2 49.1 181.2 48 179 C45.14 179.93 42.31 180.88 39.5 181.95 C38.6 182.3 37.69 182.64 36.75 183 C35.9 183.33 35.05 183.66 34.17 184 C13.46 190.53 -8.37 187.98 -27.48 178.14 C-32.77 175.27 -37.48 171.99 -42 168 C-42.76 167.34 -43.53 166.69 -44.32 166.01 C-46.23 164.35 -48.12 162.69 -50 161 C-50.24 161.59 -50.49 162.18 -50.74 162.79 C-52.22 165.38 -53.73 166.56 -56.12 168.31 C-57.77 169.52 -59.39 170.75 -61 172 C-61.94 172.71 -61.94 172.71 -62.9 173.44 C-68.43 177.91 -71.39 182.6 -74.5 188.94 C-79.46 199 -85.29 206.8 -96 211 C-99.37 212.12 -102.02 212.17 -105.56 212.19 C-106.72 212.2 -107.88 212.22 -109.07 212.23 C-112 212 -112 212 -114 210 C-115.14 201.05 -114.41 193.35 -109 186 C-103.91 179.89 -97.28 176.37 -90.44 172.56 C-83.29 168.58 -77.75 164.81 -73 158 C-67.17 149.91 -62.59 146.1 -52.68 143.71 C-49.95 143.11 -49.95 143.11 -47.57 141.63 C-45 141 -45 141 -41.87 142.82 C-40.72 143.72 -39.57 144.63 -38.44 145.56 C-25.82 155.2 -11.9 159.45 4 158 C9.74 156.97 15.37 155.51 21 154 C21 151.21 19.86 150.55 17.96 148.54 C17.3 147.85 16.65 147.15 15.97 146.44 C15.26 145.7 14.55 144.95 13.81 144.19 C12.73 143.04 12.73 143.04 11.62 141.88 C6.64 136.65 1.59 131.5 -3.57 126.46 C-6.3 123.78 -8.87 121.03 -11.37 118.13 C-15.05 113.88 -18.99 109.94 -23 106 C-27.7 101.39 -32.18 96.75 -36.36 91.66 C-38.17 89.64 -38.17 89.64 -42 88 C-53.39 99.38 -53.39 99.38 -65 111 C-68.87 109.06 -71.44 106.9 -74.46 103.91 C-75.22 103.17 -75.22 103.17 -75.99 102.4 C-77.06 101.35 -78.12 100.3 -79.18 99.24 C-80.81 97.63 -82.46 96.03 -84.11 94.43 C-85.14 93.4 -86.18 92.38 -87.21 91.35 C-87.7 90.88 -88.2 90.4 -88.71 89.91 C-90.07 88.53 -90.07 88.53 -92 86 C-91.67 82.63 -90.34 80.96 -87.98 78.63 C-87.03 77.67 -87.03 77.67 -86.06 76.69 C-85.37 76.02 -84.68 75.34 -83.96 74.64 C-83.25 73.93 -82.54 73.22 -81.81 72.48 C-80.3 70.98 -78.78 69.48 -77.26 67.98 C-74.96 65.71 -72.67 63.43 -70.38 61.15 C-68.91 59.69 -67.44 58.22 -65.96 56.76 C-65.29 56.09 -64.61 55.42 -63.91 54.72 C-59.97 50.84 -55.93 47.13 -51.72 43.54 C-48.51 40.66 -45.88 37.2 -43.18 33.84 C-37.94 30.8 -32.83 32.19 -27 33 C-25.81 33.15 -24.62 33.3 -23.39 33.46 C-19.73 33.94 -16.09 34.46 -12.44 35 C-11.19 35.18 -9.95 35.36 -8.67 35.54 C1.23 36.97 1.23 36.97 5 38 C-0.74 50.77 -15.23 61.33 -25 71 C-23.12 75.15 -20.3 77.71 -16.94 80.69 C-15.75 81.76 -14.57 82.83 -13.39 83.9 C-12.81 84.42 -12.23 84.95 -11.63 85.49 C-9.42 87.54 -7.3 89.66 -5.19 91.81 C-2.56 94.47 0.1 97.01 2.94 99.44 C6.11 102.16 9.06 105.03 12 108 C15.52 111.56 19.13 114.9 22.93 118.15 C25.41 120.37 27.73 122.7 30.06 125.06 C35.78 130.82 35.78 130.82 42 136 C45.53 134.82 45.97 133.69 47.6 130.5 C47.9 129.88 48.19 129.26 48.5 128.62 C48.81 127.99 49.12 127.35 49.43 126.69 C58.86 106.55 56.08 84.22 48.93 63.7 C39.98 39.43 24.07 16.7 1.58 3.16 C1.06 2.77 0.54 2.39 0 2 C0 1.34 0 0.68 0 0 Z " fill="#FED109" transform="translate(133,113)"/>
<path d="M0 0 C0.66 0 1.32 0 2 0 C3.57 4.66 5.14 9.32 6.7 13.99 C7.23 15.58 7.77 17.16 8.3 18.75 C9.07 21.03 9.83 23.31 10.59 25.59 C10.83 26.3 11.07 27.01 11.32 27.74 C13 32.77 13 32.77 13 35 C25.21 35 37.42 35 50 35 C48.88 38.35 48.34 38.74 45.54 40.64 C44.82 41.13 44.11 41.62 43.37 42.13 C42.61 42.64 41.85 43.16 41.06 43.69 C34.48 48.22 28.14 52.87 22 58 C23.47 65.37 25.68 72.33 28.12 79.44 C28.86 81.58 29.59 83.73 30.32 85.87 C30.64 86.81 30.97 87.75 31.3 88.71 C32 91 32 91 32 93 C28.56 91.74 25.77 90.3 22.82 88.14 C22.06 87.58 21.29 87.02 20.5 86.45 C19.72 85.87 18.93 85.29 18.12 84.69 C16.57 83.55 15.01 82.4 13.45 81.26 C12.33 80.44 12.33 80.44 11.18 79.6 C8.14 77.37 5.07 75.18 2 73 C-0.8 74.33 -3.3 75.82 -5.83 77.61 C-6.55 78.12 -7.26 78.63 -8 79.15 C-9.12 79.94 -9.12 79.94 -10.25 80.75 C-10.98 81.26 -11.7 81.78 -12.45 82.3 C-16.83 85.41 -21.13 88.6 -25.36 91.91 C-27 93 -27 93 -29 93 C-27.59 84.81 -25.17 77.23 -22.39 69.42 C-22.08 68.53 -21.78 67.64 -21.46 66.73 C-21.18 65.94 -20.9 65.15 -20.61 64.34 C-19.92 61.69 -19.62 59.72 -20 57 C-21.6 55.13 -21.6 55.13 -23.88 53.66 C-25.11 52.78 -25.11 52.78 -26.36 51.88 C-27.23 51.28 -28.1 50.68 -29 50.06 C-30.69 48.87 -32.38 47.67 -34.06 46.47 C-34.89 45.9 -35.71 45.32 -36.56 44.73 C-40.1 42.23 -43.55 39.62 -47 37 C-44.13 34.13 -41.21 34.65 -37.37 34.59 C-36.7 34.57 -36.03 34.55 -35.35 34.53 C-32.86 34.47 -30.37 34.42 -27.88 34.38 C-22.31 34.25 -16.74 34.13 -11 34 C-5.56 17.17 -5.56 17.17 0 0 Z " fill="#FDCF09" transform="translate(125,5)"/>
<path d="M0 0 C0.66 0 1.32 0 2 0 C4.31 7.26 6.62 14.52 9 22 C16.92 22.33 24.84 22.66 33 23 C33 23.66 33 24.32 33 25 C31.58 26.22 31.58 26.22 29.61 27.57 C28.9 28.05 28.19 28.54 27.46 29.04 C26.33 29.79 26.33 29.79 25.19 30.56 C24.45 31.07 23.71 31.58 22.95 32.1 C17.42 35.86 17.42 35.86 14 37 C14.21 37.62 14.42 38.24 14.64 38.88 C15.6 41.69 16.55 44.5 17.5 47.31 C17.83 48.29 18.17 49.27 18.51 50.27 C18.99 51.68 18.99 51.68 19.47 53.11 C19.76 53.98 20.06 54.84 20.36 55.73 C21 58 21 58 21 61 C18.23 59.69 15.79 58.23 13.33 56.4 C12.66 55.91 12 55.42 11.32 54.91 C10.29 54.15 10.29 54.15 9.25 53.38 C8.55 52.86 7.86 52.34 7.14 51.81 C5.42 50.54 3.71 49.27 2 48 C-0.77 49.31 -3.16 50.76 -5.6 52.6 C-6.26 53.09 -6.91 53.58 -7.59 54.09 C-8.95 55.12 -10.32 56.15 -11.69 57.19 C-12.34 57.67 -12.99 58.16 -13.66 58.66 C-14.26 59.11 -14.85 59.56 -15.46 60.02 C-17 61 -17 61 -19 61 C-17.39 54.91 -15.71 48.9 -13.55 42.97 C-12.82 40.7 -12.82 40.7 -13 37 C-14.55 35.38 -14.55 35.38 -16.68 34.05 C-17.45 33.54 -18.21 33.02 -18.99 32.48 C-19.8 31.95 -20.61 31.42 -21.44 30.88 C-23.02 29.81 -24.6 28.75 -26.18 27.68 C-26.89 27.21 -27.6 26.75 -28.33 26.27 C-30 25 -30 25 -31 23 C-22.75 23 -14.5 23 -6 23 C-5.67 20.69 -5.34 18.38 -5 16 C-4.64 14.59 -4.25 13.2 -3.81 11.82 C-3.48 10.77 -3.48 10.77 -3.13 9.7 C-2.9 8.99 -2.67 8.29 -2.44 7.56 C-2.2 6.83 -1.97 6.1 -1.73 5.35 C-1.16 3.56 -0.58 1.78 0 0 Z " fill="#BF0505" transform="translate(125,23)"/>
</svg>
