<?xml version="1.0" encoding="UTF-8"?>
<!-- Generator: https://ezgif.com/png-to-svg -->
<svg version="1.1" xmlns="http://www.w3.org/2000/svg" width="1006" height="1024">
<path d="M0 0 C5.88 0.6 11.03 2.2 16.56 4.25 C17.5 4.6 18.45 4.94 19.42 5.3 C72.23 25.11 122.21 53.53 165 90.43 C167.73 92.77 170.5 95.01 173.31 97.25 C184.35 106.27 194.47 116.39 204.56 126.44 C205.3 127.17 206.04 127.9 206.8 128.66 C211.4 133.28 215.76 138.05 220 143 C220.85 143.96 221.69 144.93 222.56 145.92 C230.88 155.57 238.45 165.75 246 176 C246.58 176.78 247.15 177.55 247.74 178.35 C299.54 248.18 333.96 334.12 342 421 C342.09 421.97 342.19 422.94 342.28 423.94 C343.29 436.35 343.22 448.79 343.24 461.23 C343.25 465.13 343.28 469.04 343.31 472.94 C343.39 490.15 342.28 506.95 340 524 C339.84 525.18 339.84 525.18 339.68 526.38 C339.13 530.44 338.47 534.47 337.75 538.5 C337.43 540.28 337.43 540.28 337.11 542.09 C328.21 590.56 309.3 634.42 286.38 677.69 C281.29 687.16 281.29 687.16 277 697 C276.73 697.68 276.45 698.35 276.17 699.05 C275.52 701.38 275.42 702.64 276 705 C278.58 709.06 281.73 712.49 285 716 C286.54 717.73 288.08 719.46 289.62 721.19 C290.37 722.01 291.12 722.83 291.89 723.68 C295.92 728.11 299.84 732.63 303.71 737.19 C309.53 744.02 315.45 750.74 321.54 757.33 C324.17 760.18 326.72 763.08 329.26 766.01 C331.32 768.36 333.41 770.68 335.5 773 C338.15 775.94 340.78 778.89 343.38 781.88 C346.83 785.84 350.39 789.71 353.95 793.58 C356.49 796.33 358.99 799.11 361.44 801.94 C365.99 807.18 370.74 812.24 375.46 817.34 C378.29 820.4 381.11 823.47 383.92 826.55 C386.22 829.06 388.53 831.57 390.85 834.07 C396.52 840.17 401.91 846.41 407 853 C405.51 858.1 402.43 860.97 398.74 864.59 C398.12 865.21 397.5 865.83 396.86 866.46 C395.54 867.77 394.22 869.08 392.9 870.38 C390.9 872.35 388.9 874.34 386.91 876.32 C381.33 881.87 375.76 887.38 369.76 892.49 C366.4 895.38 363.22 898.45 360 901.5 C355.36 905.89 350.67 910.2 345.84 914.39 C343.36 916.56 340.93 918.78 338.5 921 C332.98 926.03 327.39 930.96 321.71 935.82 C321.12 936.33 320.52 936.83 319.91 937.36 C318.68 938.41 317.46 939.45 316.23 940.5 C311.97 944.12 307.87 947.87 303.87 951.77 C302 953 302 953 300.25 952.92 C296.88 951.54 294.67 949.05 292.17 946.5 C291.61 945.94 291.06 945.38 290.49 944.81 C289.31 943.63 288.14 942.44 286.97 941.26 C285.21 939.46 283.44 937.68 281.66 935.9 C276.39 930.59 271.21 925.25 266.34 919.56 C264.66 917.6 262.86 915.79 261 914 C258.43 911.52 256.05 908.94 253.71 906.24 C250.12 902.1 246.39 898.11 242.62 894.12 C237.75 888.94 232.91 883.73 228.17 878.42 C225.64 875.59 223.07 872.8 220.5 870 C215.63 864.7 210.81 859.36 206 854 C204.5 852.33 203 850.67 201.5 849 C199.27 846.52 197.04 844.05 194.82 841.57 C190.7 836.98 186.55 832.42 182.38 827.88 C179.4 824.64 176.44 821.39 173.56 818.06 C170.36 814.37 167.06 810.78 163.75 807.19 C162.97 806.34 162.97 806.34 162.17 805.48 C159.23 802.29 159.23 802.29 156.14 799.24 C155 798 155 798 155 796 C147.18 796.34 141.07 799.44 134.06 802.75 C131.47 803.95 128.87 805.13 126.27 806.3 C125.6 806.61 124.93 806.91 124.24 807.23 C103.78 816.43 82.78 824.55 61 830 C59.95 830.26 58.9 830.53 57.83 830.8 C33.19 836.88 7.71 841.09 -17.72 841.2 C-19.35 841.21 -19.35 841.21 -21.02 841.22 C-24.51 841.24 -28.01 841.25 -31.5 841.25 C-32.69 841.25 -33.88 841.25 -35.11 841.25 C-52.29 841.24 -69.02 840.78 -86 838 C-87.86 837.73 -89.72 837.46 -91.58 837.19 C-169.33 825.38 -235.78 787.68 -297.29 740.59 C-298.09 739.99 -298.88 739.39 -299.7 738.78 C-301.23 737.59 -302.74 736.38 -304.21 735.13 C-306.09 733.58 -307.87 732.18 -310 731 C-314.82 731.46 -318.62 735.9 -322.12 739.06 C-323.47 740.25 -324.81 741.44 -326.16 742.62 C-326.81 743.2 -327.47 743.78 -328.14 744.38 C-331.44 747.26 -334.85 750 -338.26 752.76 C-341.37 755.3 -344.44 757.9 -347.5 760.5 C-351.47 763.87 -355.46 767.21 -359.5 770.5 C-365.74 775.58 -371.87 780.79 -378 786 C-385.94 792.75 -393.92 799.43 -402 806 C-403.71 807.4 -405.42 808.79 -407.12 810.19 C-408.48 811.3 -408.48 811.3 -409.86 812.43 C-412.24 814.37 -414.61 816.33 -416.98 818.29 C-424.2 824.27 -431.45 830.2 -438.84 835.96 C-441.76 838.24 -444.66 840.53 -447.54 842.86 C-456.7 850.29 -466.13 857.31 -475.65 864.28 C-479.35 866.99 -483.02 869.74 -486.69 872.5 C-487.31 872.97 -487.93 873.44 -488.57 873.92 C-489.76 874.81 -490.96 875.71 -492.15 876.61 C-495.43 879.07 -498.71 881.54 -502 884 C-505.66 882.3 -507.44 880.52 -509.94 877.31 C-513.63 872.68 -517.42 868.15 -521.31 863.69 C-522.43 862.41 -523.54 861.12 -524.66 859.84 C-525.21 859.2 -525.77 858.57 -526.34 857.91 C-533.25 849.96 -540.09 841.95 -546.73 833.77 C-548.79 831.26 -550.88 828.78 -552.98 826.32 C-558.73 819.59 -564.25 812.71 -569.67 805.71 C-570.96 804.05 -572.26 802.4 -573.56 800.75 C-579.82 792.79 -585.59 784.56 -591 776 C-591.41 775.36 -591.81 774.72 -592.23 774.05 C-593.4 772.17 -594.55 770.28 -595.69 768.38 C-596.35 767.27 -597.02 766.16 -597.7 765.02 C-599 762 -599 762 -599.13 759.48 C-597.39 755.65 -594.47 753.5 -591.25 750.88 C-590.58 750.31 -589.9 749.74 -589.21 749.16 C-587.82 747.99 -586.42 746.83 -585.02 745.68 C-583.17 744.14 -581.33 742.59 -579.5 741.02 C-574.57 736.81 -569.59 732.65 -564.56 728.56 C-559.7 724.6 -554.94 720.53 -550.19 716.44 C-545.8 712.67 -541.34 708.99 -536.84 705.34 C-533.52 702.61 -530.26 699.81 -527 697 C-522.01 692.7 -516.96 688.5 -511.84 684.34 C-508.52 681.61 -505.26 678.81 -502 676 C-497.01 671.7 -491.96 667.5 -486.84 663.34 C-483.52 660.61 -480.26 657.81 -477 655 C-471.99 650.68 -466.91 646.45 -461.78 642.28 C-458.66 639.72 -455.58 637.11 -452.5 634.5 C-447.73 630.45 -442.92 626.46 -438.07 622.5 C-429.01 615.11 -419.97 607.7 -411.06 600.12 C-406.72 596.43 -402.32 592.83 -397.86 589.29 C-391.83 584.46 -385.91 579.52 -379.95 574.61 C-376.63 571.88 -373.31 569.15 -369.96 566.45 C-367.51 564.42 -365.1 562.37 -362.69 560.3 C-361.93 559.66 -361.17 559.01 -360.38 558.34 C-358.86 557.05 -357.34 555.75 -355.84 554.43 C-355.14 553.84 -354.44 553.25 -353.72 552.65 C-353.1 552.11 -352.48 551.58 -351.84 551.03 C-350 550 -350 550 -347.88 550.27 C-332.15 556.34 -317.88 572.56 -305.26 583.51 C-297.24 590.47 -289.1 597.2 -280.69 603.69 C-279.05 604.96 -277.42 606.24 -275.79 607.52 C-247.44 629.77 -216.06 646.23 -182 658 C-181.01 658.35 -180.02 658.69 -179 659.05 C-114.85 681.21 -35 690.57 29.19 663.14 C32 662 32 662 34 662 C28.87 654.94 23.04 648.64 17.08 642.29 C14.2 639.23 11.41 636.1 8.66 632.91 C5.92 629.76 3.11 626.67 0.31 623.56 C-1.92 621.09 -4.15 618.61 -6.38 616.12 C-10.24 611.83 -14.15 607.57 -18.06 603.31 C-20.52 600.64 -22.94 597.94 -25.31 595.19 C-29.33 590.55 -33.55 586.1 -37.76 581.63 C-40.73 578.47 -43.64 575.29 -46.48 572.02 C-49.98 568 -53.59 564.12 -57.25 560.25 C-61.7 555.53 -66.13 550.79 -70.5 546 C-76.61 539.31 -82.82 532.7 -89.03 526.1 C-91.03 523.97 -93.02 521.84 -95.01 519.7 C-100.7 513.61 -106.39 507.54 -112.34 501.7 C-114.02 499.98 -115.57 498.2 -117.12 496.38 C-121.08 491.76 -125.42 487.53 -129.76 483.27 C-132.74 480.34 -135.59 477.36 -138.31 474.19 C-142.62 469.2 -147.31 464.62 -152 460 C-161.63 450.51 -161.63 450.51 -165.38 446.12 C-170.25 440.45 -175.63 435.26 -180.94 430 C-182.01 428.93 -183.09 427.86 -184.17 426.79 C-186.77 424.19 -189.39 421.59 -192 419 C-195.46 420.26 -198.24 421.71 -201.19 423.91 C-201.96 424.48 -202.74 425.05 -203.53 425.65 C-204.35 426.26 -205.16 426.87 -206 427.5 C-206.85 428.13 -207.69 428.76 -208.57 429.41 C-215.43 434.54 -222.24 439.73 -229 445 C-229.54 445.42 -230.09 445.85 -230.65 446.28 C-238.19 452.15 -245.63 458.12 -253.03 464.16 C-257.38 467.7 -261.76 471.18 -266.19 474.62 C-270.82 478.23 -275.35 481.94 -279.81 485.75 C-281.87 487.5 -283.94 489.25 -286 491 C-286.88 491.75 -287.76 492.51 -288.67 493.28 C-289.46 493.93 -290.25 494.58 -291.06 495.25 C-291.73 495.81 -292.41 496.37 -293.1 496.95 C-295 498 -295 498 -296.93 497.77 C-299.45 496.83 -300.39 495.77 -302.07 493.68 C-302.63 492.98 -303.19 492.29 -303.77 491.58 C-304.66 490.46 -304.66 490.46 -305.56 489.31 C-306.49 488.16 -306.49 488.16 -307.45 486.98 C-311.62 481.79 -315.73 476.56 -319.81 471.31 C-323.46 466.64 -327.22 462.06 -331 457.5 C-335.71 451.81 -340.34 446.07 -344.89 440.24 C-348.37 435.78 -351.92 431.38 -355.5 427 C-360.96 420.31 -366.33 413.54 -371.64 406.74 C-373.52 404.34 -375.4 401.94 -377.28 399.55 C-378.21 398.36 -379.13 397.18 -380.06 395.99 C-382.17 393.3 -384.3 390.65 -386.5 388.04 C-387.25 387.16 -387.99 386.28 -388.75 385.38 C-389.4 384.62 -390.06 383.86 -390.73 383.09 C-392 381 -392 381 -392 378.98 C-390.6 376.21 -388.76 374.89 -386.31 373 C-385.31 372.21 -384.32 371.43 -383.29 370.62 C-382.75 370.2 -382.22 369.77 -381.67 369.34 C-378.77 367.01 -375.99 364.56 -373.19 362.12 C-368.58 358.14 -363.88 354.29 -359.06 350.56 C-353.33 346.13 -347.84 341.46 -342.39 336.69 C-338 332.85 -333.53 329.11 -329 325.43 C-325.19 322.35 -321.41 319.24 -317.62 316.12 C-316.89 315.52 -316.16 314.92 -315.41 314.3 C-310.42 310.19 -305.47 306.03 -300.54 301.84 C-294.54 296.75 -288.43 291.79 -282.33 286.83 C-277.32 282.75 -272.36 278.62 -267.44 274.44 C-262.88 270.56 -258.27 266.79 -253.58 263.08 C-250.59 260.67 -247.67 258.18 -244.75 255.69 C-240.29 251.88 -235.76 248.21 -231.12 244.62 C-225.35 240.15 -219.82 235.44 -214.32 230.62 C-210.22 227.04 -206.06 223.59 -201.79 220.22 C-198.01 217.21 -194.29 214.14 -190.56 211.06 C-189.07 209.83 -187.59 208.61 -186.1 207.38 C-185.39 206.8 -184.68 206.21 -183.95 205.61 C-180.62 202.87 -177.28 200.14 -173.94 197.41 C-171.59 195.48 -169.25 193.55 -166.9 191.62 C-166.17 191.01 -165.43 190.41 -164.67 189.78 C-163.24 188.6 -161.8 187.41 -160.36 186.22 C-158.98 185.08 -157.57 183.95 -156.16 182.84 C-153.92 181.02 -153.92 181.02 -151.98 178.7 C-148.97 175.58 -146.37 173.18 -141.88 172.84 C-135.57 173.08 -129.38 174.32 -123.19 175.5 C-119.5 176.16 -115.8 176.79 -112.11 177.41 C-110.74 177.64 -110.74 177.64 -109.34 177.87 C-93.18 180.4 -77.67 179.59 -62 175 C-61.18 174.76 -60.35 174.52 -59.5 174.27 C-44.08 169.64 -29.64 163.25 -15.22 156.17 C-14.26 155.7 -13.31 155.24 -12.32 154.76 C-10.48 153.85 -8.64 152.94 -6.8 152.01 C-5.55 151.4 -5.55 151.4 -4.28 150.77 C-3.55 150.41 -2.82 150.04 -2.06 149.66 C0.41 148.87 1.59 149.07 4 150 C6.11 151.79 6.11 151.79 8.31 154.06 C9.1 154.88 9.89 155.69 10.7 156.53 C13.29 159.31 15.78 162.15 18.25 165.04 C20.72 167.81 23.38 170.39 26.03 173 C28.57 175.58 30.92 178.32 33.29 181.07 C34.96 182.95 36.7 184.73 38.5 186.5 C42.21 190.16 45.61 194.04 49 198 C49.59 198.68 50.17 199.36 50.77 200.06 C52.19 201.71 53.59 203.35 55 205 C53.42 209.31 50.11 211.73 46.69 214.56 C46.06 215.09 45.44 215.61 44.8 216.15 C43.5 217.24 42.21 218.32 40.91 219.41 C39.12 220.9 37.34 222.4 35.57 223.91 C29.71 228.91 23.79 233.82 17.81 238.69 C14.12 241.72 10.48 244.82 6.83 247.92 C3.44 250.8 0.02 253.63 -3.44 256.44 C-8.3 260.4 -13.06 264.47 -17.81 268.56 C-22.2 272.33 -26.66 276.01 -31.16 279.66 C-34.48 282.39 -37.74 285.19 -41 288 C-45.98 292.29 -51.01 296.48 -56.11 300.62 C-61.82 305.32 -67.4 310.17 -73 315 C-68.9 329.43 -54 342.78 -44.05 353.74 C-42.17 355.81 -40.33 357.9 -38.5 360 C-31.28 368.28 -23.84 376.38 -16.4 384.47 C-15.03 385.97 -13.65 387.47 -12.28 388.97 C-6.04 395.78 0.22 402.58 6.48 409.36 C8.49 411.53 10.5 413.7 12.5 415.88 C13.5 416.96 14.5 418.05 15.5 419.13 C17.98 421.81 20.46 424.49 22.93 427.18 C28.29 432.99 33.66 438.79 39.06 444.56 C44.13 449.98 49.15 455.43 54.16 460.91 C57.99 465.09 61.87 469.22 65.74 473.37 C69.49 477.38 73.22 481.4 76.94 485.44 C82.65 491.64 88.42 497.8 94.2 503.95 C97.87 507.86 101.53 511.77 105.19 515.69 C105.76 516.3 106.33 516.92 106.93 517.55 C110.26 521.12 113.58 524.71 116.89 528.31 C120.99 532.77 125.12 537.17 129.44 541.41 C131.13 543.13 132.69 544.92 134.25 546.75 C137.18 550.16 140.3 553.34 143.5 556.5 C147.38 560.33 151.03 564.22 154.46 568.44 C156.17 570.17 157.82 570.97 160 572 C198.12 516.75 217.21 456 216 389 C215.98 387.54 215.98 387.54 215.96 386.05 C215.01 322.87 194.98 262.11 167 206 C166.51 205.02 166.03 204.04 165.52 203.03 C155.41 182.86 143.83 163.56 131 145 C130.3 143.98 130.3 143.98 129.59 142.95 C123.1 133.55 116.37 124.41 109.21 115.51 C108.12 114.15 107.04 112.78 105.96 111.4 C97.49 100.66 88.49 90.39 79.16 80.4 C77.18 78.27 75.21 76.14 73.25 74 C66.49 66.58 59.54 59.38 52.43 52.3 C50.73 50.61 49.05 48.92 47.36 47.22 C42.31 42.17 37.24 37.19 31.8 32.55 C28.61 29.8 25.57 26.89 22.5 24 C14.12 16.03 14.12 16.03 5.23 8.65 C2.57 6.62 1.14 5.44 0.12 2.19 C0.06 1.1 0.06 1.1 0 0 Z " fill="#FCFCFC" transform="translate(599,71)"/>
<path d="M0 0 C0.99 0 1.98 0 3 0 C17.17 28.07 27.65 58.04 38.84 87.38 C39.92 90.2 41.01 93.02 42.19 95.8 C43 98 43 98 43 101 C43.69 101 44.39 101 45.1 100.99 C104.13 100.81 104.13 100.81 126.94 101.38 C127.68 101.39 128.43 101.41 129.2 101.42 C131.26 101.47 133.33 101.52 135.4 101.59 C137.08 101.63 137.08 101.63 138.79 101.68 C142.43 102.04 145.52 102.9 149 104 C144.76 114.07 131.53 121.43 123 128 C122.17 128.64 122.17 128.64 121.31 129.3 C118.08 131.8 114.84 134.29 111.59 136.78 C108.44 139.19 105.3 141.62 102.16 144.04 C98.31 147 94.45 149.94 90.59 152.87 C88.41 154.54 86.23 156.22 84.06 157.89 C81.56 159.83 79.03 161.7 76.44 163.51 C75.43 164.25 74.42 164.99 73.38 165.75 C72.5 166.36 71.62 166.98 70.71 167.61 C68.79 170.3 68.76 170.87 69.02 174.04 C69.97 179.71 71.63 185.19 73.31 190.69 C73.66 191.84 74 192.98 74.36 194.17 C77.25 203.69 80.26 213.18 83.28 222.66 C87.06 234.55 90.83 246.44 94.25 258.44 C94.54 259.42 94.83 260.41 95.12 261.43 C96.52 266.46 97.32 270.78 97 276 C89.28 272.39 82.19 268.09 75.06 263.44 C72.84 262 70.62 260.57 68.39 259.13 C66.76 258.08 66.76 258.08 65.1 257 C57.77 252.27 50.39 247.63 43 243 C41.72 242.19 41.72 242.19 40.41 241.37 C31.37 235.7 22.31 230.07 13.06 224.75 C12.43 224.38 11.8 224.01 11.15 223.63 C7.42 221.52 4.31 220.02 0 220 C-2.87 221.03 -5.39 222.51 -8 224.06 C-8.78 224.51 -9.56 224.96 -10.36 225.42 C-20.43 231.3 -30.22 237.64 -40 244 C-40.97 244.63 -41.94 245.26 -42.95 245.91 C-47.82 249.09 -52.7 252.26 -57.57 255.45 C-64.43 259.94 -71.31 264.39 -78.2 268.83 C-79.92 269.95 -81.63 271.07 -83.35 272.2 C-84.33 272.83 -85.3 273.47 -86.31 274.12 C-87.13 274.66 -87.95 275.2 -88.8 275.76 C-90.9 276.94 -92.65 277.56 -95 278 C-96.33 275.34 -95.74 274.31 -94.99 271.45 C-94.73 270.46 -94.47 269.48 -94.21 268.46 C-93.77 266.81 -93.77 266.81 -93.31 265.12 C-93.01 263.96 -92.7 262.8 -92.38 261.6 C-89.82 251.93 -87.16 242.28 -84.52 232.63 C-83.99 230.71 -83.46 228.79 -82.94 226.88 C-82.68 225.92 -82.42 224.97 -82.15 223.99 C-79.07 212.77 -76.03 201.56 -73.31 190.25 C-73.08 189.29 -72.85 188.34 -72.61 187.35 C-70.03 178.55 -70.03 178.55 -70.94 169.89 C-71.48 169.35 -72.01 168.81 -72.56 168.25 C-73.21 167.59 -73.86 166.93 -74.53 166.25 C-79.3 161.91 -84.18 157.72 -89.12 153.58 C-91.59 151.51 -94.03 149.4 -96.47 147.29 C-101.65 142.81 -106.89 138.42 -112.27 134.17 C-115.74 131.41 -119.18 128.61 -122.62 125.81 C-123.3 125.27 -123.97 124.72 -124.66 124.16 C-128.29 121.21 -131.9 118.26 -135.52 115.31 C-136.61 114.41 -136.61 114.41 -137.73 113.5 C-139.14 112.35 -140.54 111.2 -141.95 110.05 C-145.29 107.26 -145.29 107.26 -149 105 C-149 104.34 -149 103.68 -149 103 C-112.7 101.3 -76.34 100.76 -40 101 C-39.84 100.42 -39.68 99.84 -39.51 99.24 C-37.49 92.26 -34.99 85.55 -32.32 78.79 C-31.86 77.64 -31.41 76.49 -30.95 75.3 C-29.74 72.23 -28.53 69.15 -27.31 66.08 C-26.56 64.18 -25.81 62.28 -25.06 60.38 C-5.13 9.79 -5.13 9.79 0 0 Z " fill="#F8F8F8" transform="translate(227,0)"/>
</svg>
